<svg xmlns="http://www.w3.org/2000/svg" width="136.246" height="48" viewBox="0 0 136.246 48">
    <defs>
        <style>
            .prefix__cls-1{fill:#ebf4fc}
        </style>
    </defs>
    <g id="prefix__AbrestanLogotype" transform="translate(-3186 5.622)">
        <g id="prefix__typo" transform="translate(3186 13.449)">
            <path id="prefix__XMLID_505_" d="M4.264 13.064V0L0 2.049v15.294a4.254 4.254 0 0 0 4.264-4.279z" class="prefix__cls-1" transform="translate(63.565 3.164)"/>
            <path id="prefix__XMLID_504_" d="M10.939 0H0v12.717a4.222 4.222 0 0 0 4.264-4.264V4.264h2.4A4.322 4.322 0 0 0 10.939 0z" class="prefix__cls-1" transform="translate(51.421 15.983)"/>
            <path id="prefix__XMLID_503_" d="M29.623 15.806H14.329a1.524 1.524 0 0 1-1.537-1.537V9.824H8.528v4.445a1.524 1.524 0 0 1-1.537 1.537H5.8a1.524 1.524 0 0 1-1.537-1.537V0H0v16.062a4.285 4.285 0 0 0 4.264 4.008H7.85a4.2 4.2 0 0 0 3.586-1.959 4.2 4.2 0 0 0 3.586 1.959h10.427a4.3 4.3 0 0 0 4.174-4.264z" class="prefix__cls-1" transform="translate(20.732 .542)"/>
            <circle id="prefix__XMLID_566_" cx="1.758" cy="1.758" r="1.758" class="prefix__cls-1" transform="translate(.984 4.367)"/>
            <circle id="prefix__XMLID_565_" cx="1.758" cy="1.758" r="1.758" class="prefix__cls-1" transform="translate(56.905 21.769)"/>
            <circle id="prefix__XMLID_565__Copy_3" cx="1.758" cy="1.758" r="1.758" class="prefix__cls-1" data-name="XMLID_565_ Copy 3" transform="translate(29.518 5.555)"/>
            <circle id="prefix__XMLID_565__Copy_4" cx="1.758" cy="1.758" r="1.758" class="prefix__cls-1" data-name="XMLID_565_ Copy 4" transform="translate(29.518 1.316)"/>
            <path id="prefix__XMLID_548_" d="M.09 4.264l4.28-2.049L4.445 0 0 2.215z" class="prefix__cls-1" transform="translate(63.46)"/>
            <path id="prefix__Path" d="M19.437 7.586A10.032 10.032 0 0 0 9.4.007l.633 4.339a5.827 5.827 0 0 1 5.093 3.948 5.759 5.759 0 0 1-5.62 7.564 5.9 5.9 0 0 1-5.2-3.631L0 12.86a10.161 10.161 0 0 0 10.125 7.232 10.1 10.1 0 0 0 9.312-12.506z" class="prefix__cls-1" transform="translate(0 1.068)"/>
        </g>
        <g id="prefix__cloud" transform="translate(3261.132 -5.622)">
            <g id="prefix__Group">
                <path id="prefix__XMLID_834_" d="M10.827 3.147L14.6 5.713.139 27.244a.569.569 0 0 0 .156.879.569.569 0 0 0 .879-.156L15.632 6.435l5.3 3.53L6.475 31.5a.569.569 0 0 0 .156.879.569.569 0 0 0 .879-.156l14.459-21.535 5.3 3.53-14.457 21.531a.631.631 0 1 0 1.035.723L28.3 14.94l4.338 2.892v.085L20.027 36.8l-2.169 3.218 3.218 2.169 16.953-25.234L12.8 0z" class="prefix__cls-1" transform="translate(23.085 1.291)"/>
                <path id="prefix__XMLID_833_" d="M.36.792A2 2 0 0 1 3.01.31l2.254 1.531a2 2 0 0 1 .482 2.651 2 2 0 0 1-2.646.481L.842 3.442A1.84 1.84 0 0 1 .36.792z" class="prefix__cls-1" transform="translate(30.973 10.805)"/>
                <path id="prefix__XMLID_832_" d="M.31.792A2 2 0 0 1 2.96.31l2.254 1.531a2 2 0 0 1 .486 2.65 2 2 0 0 1-2.651.482L.792 3.442A1.981 1.981 0 0 1 .31.792z" class="prefix__cls-1" transform="translate(27.096 16.588)"/>
                <path id="prefix__XMLID_831_" d="M.323.792A2 2 0 0 1 2.973.31l2.254 1.531a2 2 0 0 1 .482 2.651 2 2 0 0 1-2.651.482L.8 3.442A1.911 1.911 0 0 1 .323.792z" class="prefix__cls-1" transform="translate(39.529 12.01)"/>
                <path id="prefix__XMLID_830_" d="M.366.792A2 2 0 0 1 3.017.31L5.27 1.841a2 2 0 0 1 .482 2.651 2 2 0 0 1-2.652.481L.848 3.442A1.829 1.829 0 0 1 .366.792z" class="prefix__cls-1" transform="translate(31.86 23.421)"/>
                <path id="prefix__XMLID_829_" d="M.366.792A2 2 0 0 1 3.017.31L5.27 1.841a2 2 0 0 1 .482 2.651 2 2 0 0 1-2.652.481L.848 3.442A1.842 1.842 0 0 1 .366.792z" class="prefix__cls-1" transform="translate(41.584 22.783)"/>
                <path id="prefix__XMLID_828_" d="M.36.792A2 2 0 0 1 3.01.31l2.254 1.531a2 2 0 0 1 .482 2.651 2 2 0 0 1-2.646.481L.842 3.442A1.853 1.853 0 0 1 .36.792z" class="prefix__cls-1" transform="translate(45.36 17.155)"/>
                <path id="prefix__XMLID_827_" d="M.36.792A2 2 0 0 1 3.01.31l2.254 1.531a2 2 0 0 1 .482 2.651 2 2 0 0 1-2.646.481L.842 3.442A1.866 1.866 0 0 1 .36.792z" class="prefix__cls-1" transform="translate(36.685 30.097)"/>
                <path id="prefix__XMLID_539_" d="M0 31.644A16.378 16.378 0 0 0 16.348 48h28.291a16.412 16.412 0 0 0 16.267-14.767h-4.163a12.237 12.237 0 0 1-12.1 10.6H16.348a12.19 12.19 0 0 1-.08-24.381h2.042v-3.1A12.174 12.174 0 0 1 30.493 4.166h.374V0h-.374a16.286 16.286 0 0 0-16.267 15.448A16.534 16.534 0 0 0 0 31.644z" class="prefix__cls-1"/>
            </g>
        </g>
    </g>
</svg>
